<svg xmlns="http://www.w3.org/2000/svg" xmlns:xlink="http://www.w3.org/1999/xlink" width="518" zoomAndPan="magnify" viewBox="0 0 388.5 89.999999" height="120" preserveAspectRatio="xMidYMid meet" version="1.0"><defs><g/><clipPath id="7043c88bf4"><path d="M 0 0.0585938 L 388 0.0585938 L 388 89.941406 L 0 89.941406 Z M 0 0.0585938 " clip-rule="nonzero"/></clipPath><clipPath id="f31c91fe77"><path d="M 4.578125 0.0585938 L 61 0.0585938 L 61 56 L 4.578125 56 Z M 4.578125 0.0585938 " clip-rule="nonzero"/></clipPath><clipPath id="98cf288b9a"><path d="M 21 29 L 92.964844 29 L 92.964844 88.445312 L 21 88.445312 Z M 21 29 " clip-rule="nonzero"/></clipPath></defs><g clip-path="url(#7043c88bf4)"><path fill="#ffffff" d="M 0 0.0585938 L 388 0.0585938 L 388 89.941406 L 0 89.941406 Z M 0 0.0585938 " fill-opacity="1" fill-rule="nonzero"/><path fill="#ffffff" d="M 0 0.0585938 L 388 0.0585938 L 388 89.941406 L 0 89.941406 Z M 0 0.0585938 " fill-opacity="1" fill-rule="nonzero"/></g><g clip-path="url(#f31c91fe77)"><path fill="#624bef" d="M 4.578125 44.375 L 48.898438 0.0585938 L 60.277344 11.4375 L 15.957031 55.753906 Z M 4.578125 44.375 " fill-opacity="1" fill-rule="evenodd"/></g><g clip-path="url(#98cf288b9a)"><path fill="#fb746c" d="M 48.894531 65.933594 L 81.832031 32.996094 L 93.210938 44.371094 L 48.894531 88.691406 L 21.046875 60.84375 L 52.621094 29.269531 L 64 40.648438 L 43.804688 60.84375 Z M 48.894531 65.933594 " fill-opacity="1" fill-rule="evenodd"/></g><g fill="#000000" fill-opacity="1"><g transform="translate(100.714465, 59.740308)"><g><path d="M 3.890625 -36.21875 L 35.21875 -36.21875 L 35.21875 -27.53125 L 15.53125 -27.53125 L 15.53125 -22.53125 L 32.375 -22.53125 L 32.375 -14.21875 L 15.53125 -14.21875 L 15.53125 -8.6875 L 35.578125 -8.6875 L 35.578125 0 L 3.890625 0 Z M 3.890625 -36.21875 "/></g></g></g><g fill="#000000" fill-opacity="1"><g transform="translate(146.481838, 59.740308)"><g><path d="M 10.53125 0 L 0 -27.796875 L 11.265625 -27.796875 L 16.375 -10.46875 L 16.734375 -10.46875 L 21.84375 -27.796875 L 32.15625 -27.796875 L 21.53125 0 Z M 10.53125 0 "/></g></g></g><g fill="#000000" fill-opacity="1"><g transform="translate(186.411043, 59.740308)"><g><path d="M 17.53125 -28.421875 C 22.613281 -28.421875 26.5 -27.226562 29.1875 -24.84375 C 31.875 -22.457031 33.21875 -18.804688 33.21875 -13.890625 L 33.21875 -12.109375 L 12.375 -12.109375 C 12.375 -10.109375 12.820312 -8.597656 13.71875 -7.578125 C 14.613281 -6.554688 16.023438 -6.046875 17.953125 -6.046875 C 19.703125 -6.046875 20.988281 -6.414062 21.8125 -7.15625 C 22.644531 -7.894531 23.0625 -8.878906 23.0625 -10.109375 L 33.21875 -10.109375 C 33.21875 -6.734375 31.9375 -4.097656 29.375 -2.203125 C 26.8125 -0.316406 23.070312 0.625 18.15625 0.625 C 13 0.625 9 -0.570312 6.15625 -2.96875 C 3.3125 -5.375 1.890625 -9.015625 1.890625 -13.890625 C 1.890625 -18.671875 3.273438 -22.285156 6.046875 -24.734375 C 8.828125 -27.191406 12.65625 -28.421875 17.53125 -28.421875 Z M 17.953125 -21.734375 C 14.648438 -21.734375 12.804688 -20.175781 12.421875 -17.0625 L 22.640625 -17.0625 C 22.640625 -18.5 22.222656 -19.632812 21.390625 -20.46875 C 20.566406 -21.3125 19.421875 -21.734375 17.953125 -21.734375 Z M 17.953125 -21.734375 "/></g></g></g><g fill="#000000" fill-opacity="1"><g transform="translate(229.285632, 59.740308)"><g><path d="M 22.3125 -28.421875 C 25.539062 -28.421875 27.960938 -27.523438 29.578125 -25.734375 C 31.191406 -23.953125 32 -21.375 32 -18 L 32 0 L 21.53125 0 L 21.53125 -16.734375 C 21.53125 -17.929688 21.222656 -18.890625 20.609375 -19.609375 C 19.992188 -20.328125 19.125 -20.6875 18 -20.6875 C 16.707031 -20.6875 15.65625 -20.265625 14.84375 -19.421875 C 14.039062 -18.578125 13.640625 -17.539062 13.640625 -16.3125 L 13.640625 0 L 3.15625 0 L 3.15625 -27.796875 L 11.734375 -27.796875 L 12.421875 -23.578125 C 13.515625 -25.054688 14.945312 -26.234375 16.71875 -27.109375 C 18.488281 -27.984375 20.351562 -28.421875 22.3125 -28.421875 Z M 22.3125 -28.421875 "/></g></g></g><g fill="#000000" fill-opacity="1"><g transform="translate(272.16021, 59.740308)"><g><path d="M 21.6875 -27.796875 L 21.6875 -20.6875 L 15.796875 -20.6875 L 15.796875 -10.109375 C 15.796875 -8.847656 16.003906 -7.925781 16.421875 -7.34375 C 16.847656 -6.757812 17.617188 -6.46875 18.734375 -6.46875 L 21.6875 -6.46875 L 21.6875 -0.3125 C 20.84375 -0.03125 19.753906 0.191406 18.421875 0.359375 C 17.085938 0.535156 15.929688 0.625 14.953125 0.625 C 11.859375 0.625 9.476562 0.0664062 7.8125 -1.046875 C 6.144531 -2.171875 5.3125 -4.085938 5.3125 -6.796875 L 5.3125 -20.6875 L 1.421875 -20.6875 L 1.421875 -27.796875 L 5.734375 -27.796875 L 8 -36.21875 L 15.796875 -36.21875 L 15.796875 -27.796875 Z M 21.6875 -27.796875 "/></g></g></g><g fill="#000000" fill-opacity="1"><g transform="translate(303.305863, 59.740308)"><g><path d="M 17.53125 -28.421875 C 22.40625 -28.421875 26.238281 -27.179688 29.03125 -24.703125 C 31.820312 -22.234375 33.21875 -18.628906 33.21875 -13.890625 C 33.21875 -9.160156 31.820312 -5.554688 29.03125 -3.078125 C 26.238281 -0.609375 22.40625 0.625 17.53125 0.625 C 12.65625 0.625 8.828125 -0.597656 6.046875 -3.046875 C 3.273438 -5.503906 1.890625 -9.117188 1.890625 -13.890625 C 1.890625 -18.671875 3.273438 -22.285156 6.046875 -24.734375 C 8.828125 -27.191406 12.65625 -28.421875 17.53125 -28.421875 Z M 17.53125 -21.3125 C 14.09375 -21.3125 12.375 -19.332031 12.375 -15.375 L 12.375 -12.375 C 12.375 -8.4375 14.09375 -6.46875 17.53125 -6.46875 C 21 -6.46875 22.734375 -8.4375 22.734375 -12.375 L 22.734375 -15.375 C 22.734375 -19.332031 21 -21.3125 17.53125 -21.3125 Z M 17.53125 -21.3125 "/></g></g></g><g fill="#000000" fill-opacity="1"><g transform="translate(346.180442, 59.740308)"><g><path d="M 20.0625 -28.484375 C 20.863281 -28.484375 21.578125 -28.382812 22.203125 -28.1875 C 22.835938 -28 23.15625 -27.882812 23.15625 -27.84375 L 23.15625 -19.0625 L 19.796875 -19.0625 C 17.617188 -19.0625 16.046875 -18.5 15.078125 -17.375 C 14.117188 -16.25 13.640625 -14.582031 13.640625 -12.375 L 13.640625 0 L 3.15625 0 L 3.15625 -27.796875 L 11.734375 -27.796875 L 12.421875 -23.578125 C 13.054688 -25.191406 14.054688 -26.410156 15.421875 -27.234375 C 16.796875 -28.066406 18.34375 -28.484375 20.0625 -28.484375 Z M 20.0625 -28.484375 "/></g></g></g></svg>